<?xml version="1.0" encoding="utf-8"?>
<!-- Generator: Adobe Illustrator 21.0.2, SVG Export Plug-In . SVG Version: 6.00 Build 0)  -->
<svg version="1.1" id="Layer_1" xmlns="http://www.w3.org/2000/svg" xmlns:xlink="http://www.w3.org/1999/xlink" x="0px" y="0px"
	 viewBox="0 0 1792 1792" style="enable-background:new 0 0 1792 1792;" xml:space="preserve">
<style type="text/css">
	.st0{fill:#FFFFFF;}
</style>
<path class="st0" d="M1372.4,360.2c16.3,0,30.2,5.8,41.9,17.4c11.7,11.7,17.4,25.6,17.4,41.9v953c0,16.3-5.8,30.2-17.4,41.9
	c-11.7,11.7-25.6,17.4-41.9,17.4h-272.8v-415.1h138.8l20.9-161.9h-159.7V751.6c0-26,5.5-45.6,16.4-58.6c10.9-13,32.2-19.5,63.8-19.5
	l85.1-0.7V528.3c-29.3-4.2-70.7-6.3-124.2-6.3c-63.3,0-113.8,18.6-151.7,55.9s-56.9,89.8-56.9,157.7v119.3H792.8v161.9h139.5v415.1
	H419.6c-16.3,0-30.2-5.8-41.9-17.4c-11.7-11.7-17.4-25.6-17.4-41.9v-953c0-16.3,5.8-30.2,17.4-41.9c11.7-11.7,25.6-17.4,41.9-17.4
	H1372.4z"/>
</svg>
