<?xml version="1.0" encoding="utf-8"?>
<!-- Generator: Adobe Illustrator 21.0.2, SVG Export Plug-In . SVG Version: 6.00 Build 0)  -->
<svg version="1.1" id="Google_Plus_alt" xmlns="http://www.w3.org/2000/svg" xmlns:xlink="http://www.w3.org/1999/xlink" x="0px"
	 y="0px" viewBox="0 0 512 512" style="enable-background:new 0 0 512 512;" xml:space="preserve">
<style type="text/css">
	.st0{fill:#FFFFFF;}
</style>
<path class="st0" d="M311.4,232.1c1.6,8.5,2.5,17.4,2.5,26.7c0,72.8-48.1,124.5-120.7,124.5c-69.5,0-125.7-57.1-125.7-127.3
	s56.3-127.3,125.7-127.3c33.9,0,62.3,12.7,84.1,33.2l-35.4,35.9v-0.1c-13.2-12.7-29.9-19.3-48.6-19.3c-41.5,0-75.2,35.5-75.2,77.5
	s33.7,77.6,75.2,77.6c37.6,0,63.2-21.8,68.5-51.8h-68.5V232h118.2V232.1z M405.2,240.1v-39.9h-31.4v39.9h-39.3V272h39.3v39.9h31.4
	V272h39.3v-31.9H405.2z"/>
</svg>
