<?xml version="1.0" encoding="utf-8"?>
<!-- Generator: Adobe Illustrator 21.0.2, SVG Export Plug-In . SVG Version: 6.00 Build 0)  -->
<svg version="1.1" id="Layer_1" xmlns="http://www.w3.org/2000/svg" xmlns:xlink="http://www.w3.org/1999/xlink" x="0px" y="0px"
	 viewBox="0 0 2500 2500" style="enable-background:new 0 0 2500 2500;" xml:space="preserve">
<style type="text/css">
	.st0{fill:#FFFFFF;}
</style>
<path class="st0" d="M982.9,1250c0-147.6,119.6-267.2,267.2-267.2s267.2,119.7,267.2,267.2s-119.7,267.2-267.2,267.2
	S982.9,1397.6,982.9,1250 M838.4,1250c0,227.4,184.3,411.7,411.7,411.7s411.7-184.3,411.7-411.7S1477.4,838.3,1250,838.3
	S838.4,1022.6,838.4,1250 M1581.8,822c0,53.1,43,96.2,96.2,96.2c53.1,0,96.2-43.1,96.2-96.2s-43-96.1-96.2-96.1
	C1624.8,725.9,1581.8,768.9,1581.8,822 M926.2,1902.6C848,1899,805.5,1886,777.3,1875c-37.5-14.6-64.1-31.9-92.2-60
	c-28-28-45.5-54.7-60-92.2c-11-28.2-24.1-70.7-27.6-148.9c-3.9-84.5-4.7-109.9-4.7-323.9s0.8-239.4,4.7-323.9
	c3.6-78.2,16.6-120.6,27.6-148.9c14.6-37.5,31.9-64.1,60-92.2c28-28,54.7-45.5,92.2-60c28.2-11,70.7-24,148.9-27.6
	c84.5-3.9,109.9-4.7,323.9-4.7c214.1,0,239.4,0.8,323.9,4.7c78.2,3.6,120.6,16.6,148.9,27.6c37.5,14.5,64.1,31.9,92.2,60
	c28,28,45.4,54.8,60,92.2c11,28.2,24,70.7,27.6,148.9c3.9,84.6,4.7,109.9,4.7,323.9c0,214-0.8,239.4-4.7,323.9
	c-3.6,78.2-16.6,120.6-27.6,148.9c-14.6,37.5-31.9,64.1-60,92.2s-54.8,45.4-92.2,60c-28.2,11-70.7,24-148.9,27.6
	c-84.5,3.9-109.9,4.7-323.9,4.7C1036,1907.2,1010.6,1906.4,926.2,1902.6 M919.6,453.2c-85.4,3.9-143.6,17.4-194.6,37.3
	c-52.7,20.5-97.4,47.9-142,92.5c-44.6,44.5-72.1,89.1-92.5,141.9c-19.8,51-33.3,109.2-37.3,194.6c-3.9,85.5-4.8,112.8-4.8,330.5
	s0.9,245.1,4.9,330.5c3.9,85.4,17.4,143.6,37.3,194.6c20.5,52.7,47.8,97.5,92.5,142c44.6,44.6,89.2,72,142,92.5
	c51.1,19.8,109.2,33.3,194.6,37.3c85.6,3.9,112.8,4.9,330.5,4.9c217.8,0,245.1-0.9,330.5-4.9c85.4-3.9,143.6-17.4,194.6-37.3
	c52.7-20.5,97.4-47.9,142-92.5c44.6-44.6,72-89.3,92.5-142c19.8-51,33.4-109.2,37.3-194.6c3.9-85.6,4.8-112.8,4.8-330.5
	s-0.9-245.1-4.8-330.5c-3.9-85.4-17.4-143.6-37.3-194.6c-20.5-52.7-47.9-97.4-92.5-142c-44.6-44.6-89.3-72-141.9-92.5
	c-51.1-19.8-109.3-33.4-194.6-37.3c-85.4-3.9-112.7-4.9-330.5-4.9C1032.3,448.3,1005,449.2,919.6,453.2"/>
</svg>
