<?xml version="1.0" encoding="utf-8"?>
<!-- Generator: Adobe Illustrator 21.1.0, SVG Export Plug-In . SVG Version: 6.00 Build 0)  -->
<svg version="1.1" id="Layer_1" xmlns="http://www.w3.org/2000/svg" xmlns:xlink="http://www.w3.org/1999/xlink" x="0px" y="0px"
	 viewBox="0 0 2048 2048" style="enable-background:new 0 0 2048 2048;" xml:space="preserve">
<style type="text/css">
	.st0{fill:#FFFFFF;}
	.st1{fill:none;}
</style>
<g id="Layer_x0020_1">
	<path class="st0" d="M1394.8,1321.7h-70.6l0.3-41c0-18.2,14.9-33.1,33.2-33.1h4.5c18.3,0,33.3,14.9,33.3,33.1L1394.8,1321.7
		L1394.8,1321.7z M1129.9,1233.9c-17.9,0-32.5,12.1-32.5,26.8V1460c0,14.7,14.7,26.7,32.5,26.7c18,0,32.7-12,32.7-26.7v-199.4
		C1162.6,1245.9,1148,1233.9,1129.9,1233.9z M1560,1122.3v379.4c0,91-78.9,165.5-175.4,165.5H663.4c-96.5,0-175.4-74.5-175.4-165.5
		v-379.4c0-91,78.9-165.5,175.4-165.5h721.2C1481.1,956.9,1560,1031.3,1560,1122.3z M711.5,1542.9v-399.6h89.4v-59.2l-238.3-0.3
		v58.2l74.4,0.2v400.7H711.5L711.5,1542.9z M979.5,1202.8h-74.5v213.4c0,30.9,1.9,46.3-0.1,51.7c-6.1,16.5-33.3,34.1-44,1.8
		c-1.7-5.6-0.2-22.7-0.2-52.1l-0.3-214.9h-74.1l0.2,211.5c0.1,32.4-0.8,56.6,0.3,67.6c1.8,19.4,1.1,42,19.1,54.9
		c33.6,24.2,97.8-3.6,113.9-38.2l-0.1,44.1l59.9,0.1L979.5,1202.8L979.5,1202.8z M1217.9,1447.2l-0.1-177.7
		c-0.1-67.6-50.7-108.2-119.5-53.5l0.4-132l-74.5,0.1l-0.4,455.8l61.2-0.9l5.6-28.4C1168.9,1582.5,1218.1,1533.3,1217.9,1447.2
		L1217.9,1447.2z M1451.2,1423.6l-55.9,0.4c-0.1,2.2-0.1,4.7-0.1,7.5v31.2c0,16.7-13.8,30.2-30.6,30.2h-11
		c-16.7,0-30.6-13.5-30.6-30.2v-82.1h128v-48.1c0-35.2-0.9-70.4-3.8-90.5c-9.2-63.6-98.5-73.8-143.7-41.2
		c-14.2,10.2-25,23.8-31.3,42.1c-6.3,18.3-9.5,43.3-9.5,75.1v105.9C1262.9,1600,1476.7,1575.1,1451.2,1423.6L1451.2,1423.6z
		 M1164.5,848.7c3.8,9.3,9.8,16.9,17.9,22.6c8,5.7,18.2,8.5,30.5,8.5c10.8,0,20.2-2.9,28.6-8.9c8.2-6,15.2-14.9,20.9-26.7l-1.4,29.2
		h83.1V520.1h-65.4v275c0,14.9-12.3,27.1-27.3,27.1c-14.9,0-27.2-12.1-27.2-27.1v-275H1156v238.3c0,30.4,0.6,50.6,1.5,60.9
		C1158.3,829.4,1160.7,839.2,1164.5,848.7L1164.5,848.7z M912.7,649.1c0-33.9,2.9-60.4,8.4-79.5c5.6-19,15.9-34.3,30.6-45.8
		c14.6-11.6,33.4-17.4,56.3-17.4c19.2,0,35.7,3.8,49.4,11.2c13.9,7.4,24.5,17,31.9,29c7.5,11.9,12.6,24.2,15.4,36.8
		c2.7,12.8,4.1,32,4.1,57.9v89.4c0,32.7-1.3,56.9-3.8,72.2c-2.5,15.4-8,29.6-16.4,42.9c-8.3,13.3-19,23.1-32,29.4
		c-13.1,6.4-28.1,9.5-45.1,9.5c-18.9,0-34.9-2.6-48-8.1c-13.2-5.4-23.4-13.6-30.6-24.5c-7.3-10.9-12.5-24.1-15.6-39.6
		c-3.1-15.5-4.6-38.7-4.6-69.6L912.7,649.1L912.7,649.1z M977.8,789.4c0,20,14.9,36.4,33.1,36.4c18.1,0,32.9-16.3,32.9-36.4V601.4
		c0-20-14.8-36.3-32.9-36.3c-18.2,0-33.1,16.3-33.1,36.3V789.4z M747.9,884.4h78.4l0.1-271L919,381.3h-85.7L784,553.7l-49.9-172.9
		h-84.9l98.5,232.7L747.9,884.4L747.9,884.4z"/>
</g>
<rect class="st1" width="2048" height="2048"/>
</svg>
